<svg width="163" height="41" viewBox="0 0 163 41" fill="none" xmlns="http://www.w3.org/2000/svg">
<path d="M17.912 40.336C14.744 40.336 11.832 39.6 9.17599 38.128C6.55199 36.656 4.45598 34.608 2.88798 31.984C1.35198 29.328 0.583984 26.352 0.583984 23.056C0.583984 19.76 1.35198 16.8 2.88798 14.176C4.45598 11.552 6.55199 9.50401 9.17599 8.03201C11.832 6.56001 14.744 5.82401 17.912 5.82401C21.08 5.82401 23.976 6.56001 26.6 8.03201C29.256 9.50401 31.336 11.552 32.84 14.176C34.376 16.8 35.144 19.76 35.144 23.056C35.144 26.352 34.376 29.328 32.84 31.984C31.304 34.608 29.224 36.656 26.6 38.128C23.976 39.6 21.08 40.336 17.912 40.336ZM17.912 32.848C20.6 32.848 22.744 31.952 24.344 30.16C25.976 28.368 26.792 26 26.792 23.056C26.792 20.08 25.976 17.712 24.344 15.952C22.744 14.16 20.6 13.264 17.912 13.264C15.192 13.264 13.016 14.144 11.384 15.904C9.78399 17.664 8.98398 20.048 8.98398 23.056C8.98398 26.032 9.78399 28.416 11.384 30.208C13.016 31.968 15.192 32.848 17.912 32.848Z" fill="#141414"/>
<path d="M54.6384 33.04V40H50.4624C47.4864 40 45.1664 39.28 43.5024 37.84C41.8384 36.368 41.0064 33.984 41.0064 30.688V20.032H37.7424V13.216H41.0064V6.68801H49.2144V13.216H54.5904V20.032H49.2144V30.784C49.2144 31.584 49.4064 32.16 49.7904 32.512C50.1744 32.864 50.8144 33.04 51.7104 33.04H54.6384Z" fill="#141414"/>
<path d="M57.5784 26.56C57.5784 23.808 58.0904 21.392 59.1144 19.312C60.1704 17.232 61.5944 15.632 63.3864 14.512C65.1784 13.392 67.1784 12.832 69.3864 12.832C71.2744 12.832 72.9224 13.216 74.3304 13.984C75.7704 14.752 76.8744 15.76 77.6424 17.008V13.216H85.8504V40H77.6424V36.208C76.8424 37.456 75.7224 38.464 74.2824 39.232C72.8744 40 71.2264 40.384 69.3384 40.384C67.1624 40.384 65.1784 39.824 63.3864 38.704C61.5944 37.552 60.1704 35.936 59.1144 33.856C58.0904 31.744 57.5784 29.312 57.5784 26.56ZM77.6424 26.608C77.6424 24.56 77.0664 22.944 75.9144 21.76C74.7944 20.576 73.4184 19.984 71.7864 19.984C70.1544 19.984 68.7624 20.576 67.6104 21.76C66.4904 22.912 65.9304 24.512 65.9304 26.56C65.9304 28.608 66.4904 30.24 67.6104 31.456C68.7624 32.64 70.1544 33.232 71.7864 33.232C73.4184 33.232 74.7944 32.64 75.9144 31.456C77.0664 30.272 77.6424 28.656 77.6424 26.608ZM78.2664 6.544L66.6984 11.392V5.728L78.2664 0.160004V6.544Z" fill="#141414"/>
<path d="M103.836 32.32L109.644 13.216H118.38L108.876 40H98.7485L89.2445 13.216H98.0285L103.836 32.32Z" fill="#141414"/>
<path d="M125.963 10.432C124.523 10.432 123.339 10.016 122.411 9.184C121.515 8.32 121.067 7.264 121.067 6.01601C121.067 4.736 121.515 3.68 122.411 2.848C123.339 1.984 124.523 1.552 125.963 1.552C127.371 1.552 128.523 1.984 129.419 2.848C130.347 3.68 130.811 4.736 130.811 6.01601C130.811 7.264 130.347 8.32 129.419 9.184C128.523 10.016 127.371 10.432 125.963 10.432ZM130.043 13.216V40H121.835V13.216H130.043Z" fill="#141414"/>
<path d="M148.184 40.384C145.56 40.384 143.192 39.824 141.08 38.704C139 37.584 137.352 35.984 136.136 33.904C134.952 31.824 134.36 29.392 134.36 26.608C134.36 23.856 134.968 21.44 136.184 19.36C137.4 17.248 139.064 15.632 141.176 14.512C143.288 13.392 145.656 12.832 148.28 12.832C150.904 12.832 153.272 13.392 155.384 14.512C157.496 15.632 159.16 17.248 160.376 19.36C161.592 21.44 162.2 23.856 162.2 26.608C162.2 29.36 161.576 31.792 160.328 33.904C159.112 35.984 157.432 37.584 155.288 38.704C153.176 39.824 150.808 40.384 148.184 40.384ZM148.184 33.28C149.752 33.28 151.08 32.704 152.168 31.552C153.288 30.4 153.848 28.752 153.848 26.608C153.848 24.464 153.304 22.816 152.216 21.664C151.16 20.512 149.848 19.936 148.28 19.936C146.68 19.936 145.352 20.512 144.296 21.664C143.24 22.784 142.712 24.432 142.712 26.608C142.712 28.752 143.224 30.4 144.248 31.552C145.304 32.704 146.616 33.28 148.184 33.28Z" fill="#141414"/>
</svg>
